<svg width="7" height="12" viewBox="0 0 7 12" fill="none" xmlns="http://www.w3.org/2000/svg">
<path d="M2.83387 6.59169C2.75576 6.51422 2.69377 6.42205 2.65146 6.3205C2.60915 6.21895 2.58737 6.11003 2.58737 6.00002C2.58737 5.89001 2.60915 5.78109 2.65146 5.67954C2.69377 5.57799 2.75576 5.48582 2.83387 5.40835L6.65887 1.59168C6.73698 1.51421 6.79897 1.42204 6.84128 1.32049C6.88359 1.21894 6.90537 1.11002 6.90537 1.00001C6.90537 0.890001 6.88359 0.781079 6.84128 0.67953C6.79897 0.57798 6.73698 0.485812 6.65887 0.408343C6.50273 0.253134 6.29152 0.166016 6.07137 0.166016C5.85121 0.166016 5.64 0.253134 5.48387 0.408343L1.65887 4.23335C1.1907 4.7021 0.927734 5.33752 0.927734 6.00002C0.927734 6.66252 1.1907 7.29794 1.65887 7.76669L5.48387 11.5917C5.63909 11.7457 5.84858 11.8324 6.0672 11.8334C6.17687 11.834 6.28559 11.813 6.38712 11.7715C6.48866 11.73 6.581 11.6689 6.65887 11.5917C6.73698 11.5142 6.79897 11.4221 6.84128 11.3205C6.88359 11.219 6.90537 11.11 6.90537 11C6.90537 10.89 6.88359 10.7811 6.84128 10.6795C6.79897 10.578 6.73698 10.4858 6.65887 10.4084L2.83387 6.59169Z" fill="currentColor" />
</svg>
