<svg width="7" height="12" viewBox="0 0 7 12" fill="none" xmlns="http://www.w3.org/2000/svg">
<path d="M4.16613 6.59168C4.24424 6.51421 4.30623 6.42205 4.34854 6.3205C4.39085 6.21895 4.41263 6.11003 4.41263 6.00002C4.41263 5.89001 4.39085 5.78108 4.34854 5.67953C4.30623 5.57798 4.24424 5.48582 4.16613 5.40835L0.341132 1.59168C0.263025 1.51421 0.201029 1.42204 0.158722 1.32049C0.116414 1.21894 0.0946331 1.11002 0.0946331 1.00001C0.0946331 0.89 0.116414 0.781079 0.158722 0.679529C0.201029 0.57798 0.263025 0.485812 0.341132 0.408343C0.497267 0.253134 0.708477 0.166016 0.928632 0.166016C1.14879 0.166016 1.36 0.253134 1.51613 0.408343L5.34113 4.23335C5.8093 4.7021 6.07227 5.33751 6.07227 6.00002C6.07227 6.66252 5.8093 7.29793 5.34113 7.76668L1.51613 11.5917C1.36091 11.7456 1.15142 11.8324 0.932799 11.8334C0.823126 11.834 0.714407 11.813 0.612876 11.7715C0.511344 11.73 0.418998 11.6689 0.341132 11.5917C0.263025 11.5142 0.201029 11.4221 0.158722 11.3205C0.116414 11.219 0.0946331 11.11 0.0946331 11C0.0946331 10.89 0.116414 10.7811 0.158722 10.6795C0.201029 10.578 0.263025 10.4858 0.341132 10.4084L4.16613 6.59168Z" fill="currentColor"/>
</svg>
