<svg width="18" height="16" viewBox="0 0 18 16" fill="none" xmlns="http://www.w3.org/2000/svg">
<path fill-rule="evenodd" clip-rule="evenodd" d="M5.77074 3.74498C5.05311 3.46474 4.26305 3.42921 3.52317 3.6439C2.78328 3.85859 2.13495 4.31149 1.67878 4.93232C1.22261 5.55315 0.984114 6.30719 1.00031 7.07742C1.0165 7.84766 1.28647 8.59101 1.76833 9.19212C2.25019 9.79323 2.91699 10.2185 3.66524 10.4019C4.41349 10.5853 5.20136 10.5166 5.90658 10.2064C6.61179 9.89628 7.19491 9.36203 7.56545 8.68659C7.93599 8.01115 8.07322 7.23228 7.95585 6.47087C7.94587 6.40599 7.94877 6.33979 7.96439 6.27603C7.98 6.21227 8.00801 6.15221 8.04683 6.09928C8.08566 6.04635 8.13452 6.00158 8.19065 5.96753C8.24677 5.93349 8.30905 5.91083 8.37393 5.90086C8.43881 5.89088 8.50502 5.89378 8.56878 5.90939C8.63253 5.925 8.6926 5.95302 8.74553 5.99184C8.79846 6.03066 8.84322 6.07953 8.87727 6.13565C8.91131 6.19178 8.93397 6.25406 8.94395 6.31893C9.09469 7.29787 8.91811 8.29919 8.4416 9.16751C7.9651 10.0358 7.21533 10.7226 6.30862 11.1213C5.40192 11.5199 4.38899 11.6081 3.42701 11.3723C2.46503 11.1364 1.6078 10.5896 0.988328 9.81679C0.36886 9.04394 0.0217963 8.08824 0.000992872 7.09798C-0.0198106 6.10773 0.286809 5.1383 0.873273 4.34011C1.45974 3.54193 2.29325 2.95963 3.24448 2.68358C4.1957 2.40752 5.21144 2.45314 6.13409 2.81336C6.19607 2.8366 6.25281 2.87193 6.30102 2.91728C6.34923 2.96263 6.38796 3.01711 6.41495 3.07755C6.44194 3.13798 6.45665 3.20318 6.45824 3.26936C6.45982 3.33553 6.44825 3.40136 6.42418 3.46302C6.40012 3.52468 6.36405 3.58095 6.31806 3.62856C6.27208 3.67617 6.21709 3.71417 6.1563 3.74035C6.09551 3.76654 6.03012 3.78039 5.96393 3.7811C5.89775 3.7818 5.83208 3.76986 5.77074 3.74498Z" fill="currentColor"/>
<path fill-rule="evenodd" clip-rule="evenodd" d="M3.99805 15.5002V11.5018C3.99805 11.3693 4.0507 11.2421 4.14443 11.1484C4.23816 11.0547 4.36529 11.002 4.49784 11.002C4.6304 11.002 4.75752 11.0547 4.85125 11.1484C4.94498 11.2421 4.99764 11.3693 4.99764 11.5018V15.5002C4.99764 15.6328 4.94498 15.7599 4.85125 15.8536C4.75752 15.9473 4.6304 16 4.49784 16C4.36529 16 4.23816 15.9473 4.14443 15.8536C4.0507 15.7599 3.99805 15.6328 3.99805 15.5002Z" fill="currentColor"/>
<path fill-rule="evenodd" clip-rule="evenodd" d="M2.49902 13.0012C2.49902 12.8687 2.55168 12.7415 2.64541 12.6478C2.73914 12.5541 2.86627 12.5014 2.99882 12.5014H5.9976C6.13016 12.5014 6.25728 12.5541 6.35101 12.6478C6.44474 12.7415 6.4974 12.8687 6.4974 13.0012C6.4974 13.1338 6.44474 13.2609 6.35101 13.3546C6.25728 13.4484 6.13016 13.501 5.9976 13.501H2.99882C2.86627 13.501 2.73914 13.4484 2.64541 13.3546C2.55168 13.2609 2.49902 13.1338 2.49902 13.0012ZM11.4464 3.63653C10.8925 3.48016 10.3086 3.46285 9.74644 3.58614C9.18427 3.70942 8.66119 3.96949 8.22358 4.34329C7.78596 4.71709 7.44732 5.19308 7.23767 5.72906C7.02802 6.26505 6.95383 6.84448 7.02169 7.41599C7.0298 7.48134 7.02491 7.54765 7.00731 7.61111C6.98972 7.67457 6.95975 7.73392 6.91914 7.78576C6.87853 7.8376 6.82808 7.88091 6.77068 7.91318C6.71328 7.94546 6.65006 7.96608 6.58467 7.97385C6.51928 7.98162 6.45299 7.97639 6.38963 7.95846C6.32626 7.94054 6.26707 7.91026 6.21544 7.86938C6.16381 7.82851 6.12077 7.77783 6.08879 7.72026C6.05681 7.66269 6.03652 7.59938 6.02909 7.53394C5.91232 6.55036 6.12346 5.55573 6.62975 4.70441C7.13604 3.85309 7.90917 3.19268 8.82916 2.82567C9.74914 2.45865 10.7645 2.40556 11.7178 2.67462C12.671 2.94368 13.5088 3.51985 14.1011 4.31372C14.6935 5.1076 15.0072 6.07478 14.9936 7.06518C14.9801 8.05558 14.64 9.01381 14.0262 9.79119C13.4124 10.5686 12.5592 11.1216 11.5989 11.3645C10.6387 11.6074 9.6251 11.5265 8.7155 11.1345C8.65521 11.1085 8.60063 11.0709 8.55487 11.0239C8.50911 10.9768 8.47306 10.9212 8.44879 10.8602C8.39977 10.7371 8.40168 10.5995 8.4541 10.4777C8.50653 10.356 8.60517 10.2601 8.72834 10.211C8.8515 10.162 8.98909 10.1639 9.11084 10.2164C9.55056 10.4058 10.0245 10.503 10.5033 10.5019C10.9821 10.5008 11.4556 10.4014 11.8944 10.2099C12.3332 10.0184 12.7281 9.73891 13.0546 9.38864C13.381 9.03838 13.6321 8.62484 13.7922 8.17362C13.9524 7.72241 14.0182 7.24312 13.9857 6.76542C13.9531 6.28773 13.8229 5.82181 13.603 5.39649C13.3831 4.97118 13.0782 4.59553 12.7072 4.2928C12.3363 3.99007 11.9072 3.7667 11.4464 3.63653Z" fill="#F6B83D"/>
<path fill-rule="evenodd" clip-rule="evenodd" d="M13.3915 4.60812C13.2978 4.51439 13.2451 4.38729 13.2451 4.25476C13.2451 4.12223 13.2978 3.99513 13.3915 3.9014L17.1399 0.152926C17.186 0.10519 17.2412 0.0671139 17.3022 0.04092C17.3631 0.0147262 17.4287 0.000938867 17.4951 0.000362193C17.5614 -0.000214481 17.6273 0.0124314 17.6887 0.0375616C17.7501 0.0626918 17.8059 0.0998033 17.8528 0.146731C17.8998 0.193658 17.9369 0.249461 17.962 0.310884C17.9871 0.372307 17.9998 0.43812 17.9992 0.504483C17.9986 0.570846 17.9848 0.636429 17.9586 0.697406C17.9325 0.758384 17.8944 0.813534 17.8466 0.859638L14.0982 4.60812C14.0044 4.70181 13.8773 4.75445 13.7448 4.75445C13.6123 4.75445 13.4852 4.70181 13.3915 4.60812Z" fill="currentColor"/>
<path fill-rule="evenodd" clip-rule="evenodd" d="M17.455 3.50508C17.3893 3.50423 17.3245 3.49046 17.2642 3.46456C17.2039 3.43865 17.1493 3.40112 17.1035 3.35411C17.0577 3.30709 17.0216 3.25151 16.9972 3.19055C16.9729 3.12958 16.9608 3.06442 16.9617 2.99878L16.9867 1.01259L15.0005 1.03758C14.8679 1.0393 14.7401 0.988297 14.6452 0.895786C14.5502 0.803274 14.4959 0.676833 14.4942 0.544279C14.4925 0.411725 14.5435 0.283915 14.636 0.188966C14.7285 0.0940174 14.8549 0.0397076 14.9875 0.0379844L17.9993 0L17.9613 3.01178C17.9604 3.07741 17.9467 3.14224 17.9208 3.20255C17.8949 3.26287 17.8573 3.31749 17.8103 3.3633C17.7633 3.4091 17.7077 3.4452 17.6467 3.46953C17.5858 3.49386 17.5206 3.50594 17.455 3.50508Z" fill="currentColor"/>
</svg>
