<svg width="34" height="34" viewBox="0 0 34 34" fill="none" xmlns="http://www.w3.org/2000/svg">
<path d="M13.2812 5.3125C12.1444 5.3125 11.1541 5.9585 10.5251 6.84038C9.89613 7.72225 9.5625 8.86125 9.5625 10.0938C9.5625 11.3263 9.89613 12.4663 10.5251 13.3482C11.1541 14.2301 12.1444 14.875 13.2812 14.875C14.4181 14.875 15.4084 14.229 16.0374 13.3471C16.6664 12.4653 17 11.3263 17 10.0938C17 8.86125 16.6664 7.72119 16.0374 6.83931C15.4084 5.95744 14.4181 5.3125 13.2812 5.3125ZM17 10.0938C17 11.3263 17.3336 12.4663 17.9626 13.3482C18.5916 14.2301 19.5829 14.875 20.7188 14.875C21.8556 14.875 22.8459 14.229 23.4749 13.3471C24.1039 12.4653 24.4375 11.3263 24.4375 10.0938C24.4375 8.86125 24.1039 7.72119 23.4749 6.83931C22.8459 5.95744 21.8556 5.3125 20.7188 5.3125C19.5819 5.3125 18.5916 5.9585 17.9626 6.84038C17.3336 7.72225 17 8.86125 17 10.0938ZM13.2812 7.4375C13.6128 7.4375 13.9783 7.60325 14.3119 8.06862C14.6413 8.53294 14.875 9.27244 14.875 10.0938C14.875 10.9151 14.6413 11.6556 14.3119 12.1189C13.9783 12.5842 13.6128 12.75 13.2812 12.75C12.9497 12.75 12.5842 12.5842 12.2506 12.1189C11.9212 11.6546 11.6875 10.9151 11.6875 10.0938C11.6875 9.27244 11.9212 8.53187 12.2506 8.06862C12.5842 7.60325 12.9497 7.4375 13.2812 7.4375ZM20.7188 7.4375C21.0502 7.4375 21.4157 7.60325 21.7494 8.06862C22.0787 8.53294 22.3125 9.27244 22.3125 10.0938C22.3125 10.9151 22.0787 11.6556 21.7494 12.1189C21.4157 12.5842 21.0502 12.75 20.7188 12.75C20.3873 12.75 20.0218 12.5842 19.6881 12.1189C19.3588 11.6546 19.125 10.9151 19.125 10.0938C19.125 9.27244 19.3588 8.53187 19.6881 8.06862C20.0218 7.60325 20.3873 7.4375 20.7188 7.4375ZM7.96875 12.75C6.83187 12.75 5.84163 13.396 5.21263 14.2779C4.58363 15.1597 4.25 16.2987 4.25 17.5312C4.25 18.7638 4.58363 19.9038 5.21263 20.7857C5.84163 21.6676 6.83187 22.3125 7.96875 22.3125C9.10563 22.3125 10.0959 21.6665 10.7249 20.7846C11.3539 19.9028 11.6875 18.7638 11.6875 17.5312C11.6875 16.2987 11.3539 15.1587 10.7249 14.2768C10.0959 13.3949 9.10563 12.75 7.96875 12.75ZM26.0312 12.75C24.8944 12.75 23.9041 13.396 23.2751 14.2779C22.6461 15.1597 22.3125 16.2987 22.3125 17.5312C22.3125 18.7638 22.6461 19.9038 23.2751 20.7857C23.9041 21.6676 24.8944 22.3125 26.0312 22.3125C27.1681 22.3125 28.1584 21.6665 28.7874 20.7846C29.4164 19.9028 29.75 18.7638 29.75 17.5312C29.75 16.2987 29.4164 15.1587 28.7874 14.2768C28.1584 13.3949 27.1681 12.75 26.0312 12.75ZM7.96875 14.875C8.30025 14.875 8.66575 15.0407 8.99938 15.5061C9.32875 15.9704 9.5625 16.7099 9.5625 17.5312C9.5625 18.3526 9.32875 19.0931 8.99938 19.5564C8.66575 20.0218 8.30025 20.1875 7.96875 20.1875C7.63725 20.1875 7.27175 20.0218 6.93813 19.5564C6.60875 19.0931 6.375 18.3526 6.375 17.5312C6.375 16.7099 6.60875 15.9694 6.93813 15.5061C7.27175 15.0407 7.63725 14.875 7.96875 14.875ZM26.0312 14.875C26.3627 14.875 26.7282 15.0407 27.0619 15.5061C27.3912 15.9704 27.625 16.7099 27.625 17.5312C27.625 18.3526 27.3912 19.0931 27.0619 19.5564C26.7282 20.0218 26.3627 20.1875 26.0312 20.1875C25.6998 20.1875 25.3343 20.0218 25.0006 19.5564C24.6713 19.0921 24.4375 18.3526 24.4375 17.5312C24.4375 16.7099 24.6713 15.9694 25.0006 15.5061C25.3343 15.0407 25.6998 14.875 26.0312 14.875ZM17 17C15.5837 17 14.5956 17.9191 14.11 18.7266C13.6276 19.5341 13.3301 20.2056 13.0475 20.4861C12.8849 20.6529 11.8596 21.0386 10.7908 21.5836C10.2563 21.8567 9.71762 22.2211 9.26394 22.7789C8.80706 23.3368 8.49894 24.1071 8.49894 24.9709C8.49894 27.0109 10.1777 28.6896 12.2177 28.6896C13.1378 28.6896 14.0983 28.3921 15.0386 28.1265C15.9832 27.8545 17 27.625 17 27.625C17 27.625 18.0168 27.8545 18.9592 28.1244C19.9006 28.39 20.8611 28.6875 21.7812 28.6875C23.8212 28.6875 25.5 27.0087 25.5 24.9688C25.5 24.1251 25.1887 23.3537 24.735 22.8119C24.2834 22.2668 23.7394 21.93 23.2092 21.6484C22.1467 21.0853 21.1023 20.6391 20.9514 20.4861C20.6964 20.2343 20.4096 19.5404 19.9208 18.7287C19.4331 17.9138 18.4237 17 17 17ZM17 19.125C17.7013 19.125 17.7788 19.295 18.0944 19.822C18.4131 20.3479 18.6511 21.2415 19.4225 22.0139C20.2991 22.8852 21.4062 23.0764 22.2126 23.5057C22.6164 23.7203 22.9245 23.9487 23.1094 24.1697C23.2932 24.3897 23.375 24.5905 23.375 24.9666C23.375 25.8591 22.6737 26.5604 21.7812 26.5604C21.4731 26.5604 20.4808 26.3266 19.5564 26.061C18.632 25.7986 17.867 25.4979 17 25.4979C16.133 25.4979 15.368 25.7986 14.4436 26.061C13.5192 26.3266 12.5269 26.5604 12.2188 26.5604C11.3263 26.5604 10.625 25.8591 10.625 24.9666C10.625 24.5384 10.7143 24.3185 10.8906 24.1017C11.067 23.8861 11.3921 23.6725 11.7874 23.4717C12.5779 23.0679 13.6786 22.9086 14.5764 22.0107C15.3552 21.2277 15.589 20.3054 15.9046 19.7848C16.2148 19.2642 16.2892 19.1208 16.9989 19.1208L17 19.125Z" fill="currentColor"/>
</svg>
