<svg width="18" height="18" viewBox="0 0 18 18" fill="none" xmlns="http://www.w3.org/2000/svg">
<path d="M12 12L9 9L6 12" stroke="currentColor" stroke-width="1.3" stroke-linecap="round" stroke-linejoin="round"/>
<path d="M9 9V15.75" stroke="currentColor" stroke-width="1.3" stroke-linecap="round" stroke-linejoin="round"/>
<path d="M15.2926 13.7925C16.0241 13.3937 16.602 12.7626 16.935 11.999C17.268 11.2353 17.3372 10.3824 17.1317 9.575C16.9262 8.7676 16.4577 8.05162 15.8001 7.54007C15.1425 7.02852 14.3332 6.75054 13.5001 6.74999H12.5551C12.3281 5.87192 11.905 5.05674 11.3175 4.36573C10.7301 3.67473 9.99372 3.12588 9.16366 2.76044C8.3336 2.39501 7.4315 2.22251 6.52518 2.2559C5.61885 2.28929 4.73189 2.52771 3.93097 2.95324C3.13006 3.37876 2.43602 3.98031 1.90106 4.71267C1.36609 5.44503 1.00411 6.28914 0.842327 7.18153C0.680545 8.07393 0.723171 8.99138 0.967002 9.86493C1.21083 10.7385 1.64952 11.5454 2.25009 12.225" stroke="currentColor" stroke-width="1.3" stroke-linecap="round" stroke-linejoin="round"/>
<path d="M12 12L9 9L6 12" stroke="currentColor" stroke-width="1.3" stroke-linecap="round" stroke-linejoin="round"/>
</svg>
